PathFileType	4	(X/Y/Z)	C:/Users/beibeiliu/ov580/test_trc/User3\sequence.25_training_dense_left.trc
DataRate	CameraRate	NumFrames	NumMarkers	Units	OrigDataRate	OrigDataStartFrame	OrigNumFrames
120	120	7	19	mm	120	49	145
Frame#	Time	ThumbCMC			ThumbMCP			ThumbIP			ThumbTip			IndexMCP			IndexPIP			IndexTip			MiddleMCP			MiddlePIP			MiddleTip			RingMCP			RingPIP			RingTip			PinkyMCP			PinkyPIP			PinkyTip			BackHand1			BackHand2			BackHand3	
		X0	Y0	Z0	X1	Y1	Z1	X2	Y2	Z2	X3	Y3	Z3	X4	Y4	Z4	X5	Y5	Z5	X6	Y6	Z6	X7	Y7	Z7	X8	Y8	Z8	X9	Y9	Z9	X10	Y10	Z10	X11	Y11	Z11	X12	Y12	Z12	X13	Y13	Z13	X14	Y14	Z14	X15	Y15	Z15	X16	Y16	Z16	X17	Y17	Z17	X18	Y18	Z18	
48	0.4	-153.506	-81.7129	14.2411	-169.32	-70.9926	-7.14467	-192.379	-66.1674	-29.248	-201.305	-57.2335	-46.7542	-125.779	-78.9384	-63.4553	-125.144	-68.6526	-88.5046	-123.928	-53.4612	-110.762	-100.07	-61.0207	-58.662	-105.295	-27.4047	-69.8455	-114.146	3.35422	-48.7765	-89.4645	-50.1072	-40.4229	-94.2085	-21.4125	-25.7129	-111.485	-38.1027	-0.0146086	-76.2282	-41.4108	-23.866	-93.6384	-27.5803	-6.58402	-101.9	-44.1656	12.5065	-87.2544	-95.0132	-2.42501	-93.4437	-100.306	23.5312	-121.068	-101.098	5.69689	
49	0.408333	-155.739	-83.1628	10.2048	-168.413	-73.8209	-7.60811	-188.396	-67.8365	-29.0781	-202.517	-60.6064	-46.3536	-123.9	-83.4332	-65.0754	-125.602	-75.7115	-90.3045	-124.52	-67.7855	-112.077	-99.9936	-65.372	-61.4005	-100.837	-34.6797	-72.3927	-105.906	0.871108	-56.5727	-85.6895	-51.8654	-42.3823	-95.8912	-24.6491	-28.793	-106.594	-36.774	0.352972	-75.5607	-52.2636	-25.5559	-90.8954	-30.1469	-13.7503	-100.773	-44.6737	13.8232	-87.2875	-98.3187	-5.04462	-95.892	-101.72	25.7321	-122.358	-102.932	4.50676	
50	0.416667	-154.434	-83.2366	15.8258	-170.328	-74.1328	-7.89804	-187.492	-66.7202	-27.9584	-203.483	-59.9385	-43.9472	-128.601	-87.0526	-59.7512	-125.322	-82.2517	-89.3301	-128.622	-75.6383	-111.171	-100.026	-71.7308	-61.717	-99.2569	-43.2171	-78.7784	-102.081	-9.29146	-72.0171	-86.6205	-58.9477	-44.3162	-91.7471	-27.4156	-32.9935	-106.238	-37.4597	-3.14608	-74.9211	-50.6527	-27.7363	-85.7571	-29.8964	-15.0997	-101.192	-41.3777	7.79379	-88.6607	-100.569	-2.38309	-92.5021	-104.866	25.9385	-122.343	-104.882	5.11525	
51	0.425	-154.59	-81.6668	16.3149	-172.807	-71.1887	-4.80204	-185.642	-61.6808	-27.8047	-200.969	-53.3176	-47.4359	-128.219	-88.5221	-61.4609	-130.777	-82.7872	-88.5786	-130.582	-73.4824	-114.324	-101.076	-77.8051	-62.7358	-101.131	-56.2122	-84.7391	-98.549	-14.0641	-85.2714	-87.945	-61.7554	-47.6766	-91.9673	-29.7529	-42.5922	-100.708	-29.4038	-11.5729	-70.6733	-54.3194	-27.8126	-87.1042	-30.5467	-17.7042	-101.696	-40.8187	3.61159	-90.3913	-100.552	-4.09127	-91.4229	-103.906	27.4493	-124.952	-105.614	4.37578	
52	0.433333	-149.853	-80.6704	13.3155	-167.525	-67.9379	-3.70262	-187.288	-56.2534	-31.8743	-195.812	-44.3405	-46.5488	-126.173	-86.6958	-60.0605	-130.38	-80.377	-87.4338	-131.521	-67.2499	-112.672	-97.1713	-80.765	-66.2396	-98.129	-63.5222	-88.8065	-99.1076	-26.0375	-97.9433	-80.9857	-63.6117	-46.2408	-86.3912	-31.8532	-50.9649	-97.9154	-20.5232	-20.8308	-69.6212	-52.9496	-28.3445	-83.7233	-28.2381	-21.3324	-100.132	-29.5964	5.14942	-89.5025	-98.2039	-4.92268	-90.1809	-105.409	29.3258	-123.655	-104.219	2.27931	
53	0.441667	-151.752	-80.2653	16.0698	-169.77	-65.2375	-7.49625	-185.966	-50.7827	-28.9444	-190.63	-37.1912	-43.1892	-126.946	-85.5634	-59.1389	-132.577	-77.6793	-88.0411	-135.783	-65.5221	-108.892	-100.913	-83.2581	-66.0218	-95.7747	-66.7523	-92.449	-93.7707	-35.0577	-106.308	-84.4192	-65.4511	-51.1334	-80.9049	-36.691	-58.9395	-92.734	-13.1436	-41.4246	-70.6187	-54.9594	-30.8167	-80.5712	-27.7391	-29.6667	-96.5259	-16.212	-9.36248	-85.9094	-100.306	-0.908967	-90.554	-105.036	26.4387	-123.764	-103.98	1.8083	
54	0.45	-150.898	-80.0595	11.9507	-166.444	-63.7741	-4.00694	-182.944	-47.6706	-26.0138	-185.2	-31.65	-41.475	-126.171	-84.6334	-59.9101	-132.289	-75.0453	-90.447	-135.113	-61.7361	-108.299	-95.5189	-83.5733	-62.6059	-95.4983	-67.5027	-91.9949	-94.3764	-38.9324	-110.895	-78.6752	-66.7837	-48.4469	-75.9895	-37.692	-63.0333	-87.21	-11.9519	-54.6752	-68.3259	-52.4126	-31.6759	-75.12	-27.6082	-33.6699	-92.0231	-10.7863	-20.2921	-84.8516	-99.2096	-2.88519	-87.7551	-102.495	28.4877	-122.121	-102.449	4.0755	
